<svg xmlns="http://www.w3.org/2000/svg" width="168" height="168" viewbox="0 0 168 168" preserveAspectRatio="none"><rect x="0" y="0" width="100%" height="100%" fill="rgb(143, 133, 126)" /><g fill="#ddd" stroke="#000" stroke-opacity="0.02" style="fill-opacity:0.054666666666667;" transform="translate(-14, -21)" ><rect x="14" y="0" width="14" height="42" /><rect x="0" y="14" width="42" height="14" /></g><g fill="#ddd" stroke="#000" stroke-opacity="0.02" style="fill-opacity:0.054666666666667;" transform="translate(154, -21)" ><rect x="14" y="0" width="14" height="42" /><rect x="0" y="14" width="42" height="14" /></g><g fill="#ddd" stroke="#000" stroke-opacity="0.02" style="fill-opacity:0.054666666666667;" transform="translate(-14, 147)" ><rect x="14" y="0" width="14" height="42" /><rect x="0" y="14" width="42" height="14" /></g><g fill="#ddd" stroke="#000" stroke-opacity="0.02" style="fill-opacity:0.054666666666667;" transform="translate(154, 147)" ><rect x="14" y="0" width="14" height="42" /><rect x="0" y="14" width="42" height="14" /></g><g fill="#222" stroke="#000" stroke-opacity="0.02" style="fill-opacity:0.13266666666667;" transform="translate(14, -21)" ><rect x="14" y="0" width="14" height="42" /><rect x="0" y="14" width="42" height="14" /></g><g fill="#222" stroke="#000" stroke-opacity="0.02" style="fill-opacity:0.13266666666667;" transform="translate(14, 147)" ><rect x="14" y="0" width="14" height="42" /><rect x="0" y="14" width="42" height="14" /></g><g fill="#222" stroke="#000" stroke-opacity="0.02" style="fill-opacity:0.13266666666667;" transform="translate(42, -21)" ><rect x="14" y="0" width="14" height="42" /><rect x="0" y="14" width="42" height="14" /></g><g fill="#222" stroke="#000" stroke-opacity="0.02" style="fill-opacity:0.13266666666667;" transform="translate(42, 147)" ><rect x="14" y="0" width="14" height="42" /><rect x="0" y="14" width="42" height="14" /></g><g fill="#ddd" stroke="#000" stroke-opacity="0.02" style="fill-opacity:0.124;" transform="translate(70, -21)" ><rect x="14" y="0" width="14" height="42" /><rect x="0" y="14" width="42" height="14" /></g><g fill="#ddd" stroke="#000" stroke-opacity="0.02" style="fill-opacity:0.124;" transform="translate(70, 147)" ><rect x="14" y="0" width="14" height="42" /><rect x="0" y="14" width="42" height="14" /></g><g fill="#222" stroke="#000" stroke-opacity="0.02" style="fill-opacity:0.11533333333333;" transform="translate(98, -21)" ><rect x="14" y="0" width="14" height="42" /><rect x="0" y="14" width="42" height="14" /></g><g fill="#222" stroke="#000" stroke-opacity="0.02" style="fill-opacity:0.11533333333333;" transform="translate(98, 147)" ><rect x="14" y="0" width="14" height="42" /><rect x="0" y="14" width="42" height="14" /></g><g fill="#ddd" stroke="#000" stroke-opacity="0.02" style="fill-opacity:0.054666666666667;" transform="translate(126, -21)" ><rect x="14" y="0" width="14" height="42" /><rect x="0" y="14" width="42" height="14" /></g><g fill="#ddd" stroke="#000" stroke-opacity="0.02" style="fill-opacity:0.054666666666667;" transform="translate(126, 147)" ><rect x="14" y="0" width="14" height="42" /><rect x="0" y="14" width="42" height="14" /></g><g fill="#222" stroke="#000" stroke-opacity="0.02" style="fill-opacity:0.098;" transform="translate(0, 7)" ><rect x="14" y="0" width="14" height="42" /><rect x="0" y="14" width="42" height="14" /></g><g fill="#222" stroke="#000" stroke-opacity="0.02" style="fill-opacity:0.098;" transform="translate(168, 7)" ><rect x="14" y="0" width="14" height="42" /><rect x="0" y="14" width="42" height="14" /></g><g fill="#222" stroke="#000" stroke-opacity="0.02" style="fill-opacity:0.046;" transform="translate(28, 7)" ><rect x="14" y="0" width="14" height="42" /><rect x="0" y="14" width="42" height="14" /></g><g fill="#222" stroke="#000" stroke-opacity="0.02" style="fill-opacity:0.080666666666667;" transform="translate(56, 7)" ><rect x="14" y="0" width="14" height="42" /><rect x="0" y="14" width="42" height="14" /></g><g fill="#ddd" stroke="#000" stroke-opacity="0.02" style="fill-opacity:0.124;" transform="translate(84, 7)" ><rect x="14" y="0" width="14" height="42" /><rect x="0" y="14" width="42" height="14" /></g><g fill="#ddd" stroke="#000" stroke-opacity="0.02" style="fill-opacity:0.124;" transform="translate(112, 7)" ><rect x="14" y="0" width="14" height="42" /><rect x="0" y="14" width="42" height="14" /></g><g fill="#222" stroke="#000" stroke-opacity="0.02" style="fill-opacity:0.046;" transform="translate(140, 7)" ><rect x="14" y="0" width="14" height="42" /><rect x="0" y="14" width="42" height="14" /></g><g fill="#222" stroke="#000" stroke-opacity="0.02" style="fill-opacity:0.080666666666667;" transform="translate(-14, 35)" ><rect x="14" y="0" width="14" height="42" /><rect x="0" y="14" width="42" height="14" /></g><g fill="#222" stroke="#000" stroke-opacity="0.02" style="fill-opacity:0.080666666666667;" transform="translate(154, 35)" ><rect x="14" y="0" width="14" height="42" /><rect x="0" y="14" width="42" height="14" /></g><g fill="#222" stroke="#000" stroke-opacity="0.02" style="fill-opacity:0.080666666666667;" transform="translate(14, 35)" ><rect x="14" y="0" width="14" height="42" /><rect x="0" y="14" width="42" height="14" /></g><g fill="#ddd" stroke="#000" stroke-opacity="0.02" style="fill-opacity:0.124;" transform="translate(42, 35)" ><rect x="14" y="0" width="14" height="42" /><rect x="0" y="14" width="42" height="14" /></g><g fill="#ddd" stroke="#000" stroke-opacity="0.02" style="fill-opacity:0.14133333333333;" transform="translate(70, 35)" ><rect x="14" y="0" width="14" height="42" /><rect x="0" y="14" width="42" height="14" /></g><g fill="#222" stroke="#000" stroke-opacity="0.02" style="fill-opacity:0.046;" transform="translate(98, 35)" ><rect x="14" y="0" width="14" height="42" /><rect x="0" y="14" width="42" height="14" /></g><g fill="#ddd" stroke="#000" stroke-opacity="0.02" style="fill-opacity:0.02;" transform="translate(126, 35)" ><rect x="14" y="0" width="14" height="42" /><rect x="0" y="14" width="42" height="14" /></g><g fill="#ddd" stroke="#000" stroke-opacity="0.02" style="fill-opacity:0.14133333333333;" transform="translate(0, 63)" ><rect x="14" y="0" width="14" height="42" /><rect x="0" y="14" width="42" height="14" /></g><g fill="#ddd" stroke="#000" stroke-opacity="0.02" style="fill-opacity:0.14133333333333;" transform="translate(168, 63)" ><rect x="14" y="0" width="14" height="42" /><rect x="0" y="14" width="42" height="14" /></g><g fill="#ddd" stroke="#000" stroke-opacity="0.02" style="fill-opacity:0.072;" transform="translate(28, 63)" ><rect x="14" y="0" width="14" height="42" /><rect x="0" y="14" width="42" height="14" /></g><g fill="#ddd" stroke="#000" stroke-opacity="0.02" style="fill-opacity:0.037333333333333;" transform="translate(56, 63)" ><rect x="14" y="0" width="14" height="42" /><rect x="0" y="14" width="42" height="14" /></g><g fill="#ddd" stroke="#000" stroke-opacity="0.02" style="fill-opacity:0.089333333333333;" transform="translate(84, 63)" ><rect x="14" y="0" width="14" height="42" /><rect x="0" y="14" width="42" height="14" /></g><g fill="#ddd" stroke="#000" stroke-opacity="0.02" style="fill-opacity:0.124;" transform="translate(112, 63)" ><rect x="14" y="0" width="14" height="42" /><rect x="0" y="14" width="42" height="14" /></g><g fill="#ddd" stroke="#000" stroke-opacity="0.02" style="fill-opacity:0.054666666666667;" transform="translate(140, 63)" ><rect x="14" y="0" width="14" height="42" /><rect x="0" y="14" width="42" height="14" /></g><g fill="#222" stroke="#000" stroke-opacity="0.02" style="fill-opacity:0.11533333333333;" transform="translate(-14, 91)" ><rect x="14" y="0" width="14" height="42" /><rect x="0" y="14" width="42" height="14" /></g><g fill="#222" stroke="#000" stroke-opacity="0.02" style="fill-opacity:0.11533333333333;" transform="translate(154, 91)" ><rect x="14" y="0" width="14" height="42" /><rect x="0" y="14" width="42" height="14" /></g><g fill="#222" stroke="#000" stroke-opacity="0.02" style="fill-opacity:0.11533333333333;" transform="translate(14, 91)" ><rect x="14" y="0" width="14" height="42" /><rect x="0" y="14" width="42" height="14" /></g><g fill="#222" stroke="#000" stroke-opacity="0.02" style="fill-opacity:0.046;" transform="translate(42, 91)" ><rect x="14" y="0" width="14" height="42" /><rect x="0" y="14" width="42" height="14" /></g><g fill="#222" stroke="#000" stroke-opacity="0.02" style="fill-opacity:0.11533333333333;" transform="translate(70, 91)" ><rect x="14" y="0" width="14" height="42" /><rect x="0" y="14" width="42" height="14" /></g><g fill="#222" stroke="#000" stroke-opacity="0.02" style="fill-opacity:0.098;" transform="translate(98, 91)" ><rect x="14" y="0" width="14" height="42" /><rect x="0" y="14" width="42" height="14" /></g><g fill="#222" stroke="#000" stroke-opacity="0.02" style="fill-opacity:0.080666666666667;" transform="translate(126, 91)" ><rect x="14" y="0" width="14" height="42" /><rect x="0" y="14" width="42" height="14" /></g><g fill="#ddd" stroke="#000" stroke-opacity="0.02" style="fill-opacity:0.124;" transform="translate(0, 119)" ><rect x="14" y="0" width="14" height="42" /><rect x="0" y="14" width="42" height="14" /></g><g fill="#ddd" stroke="#000" stroke-opacity="0.02" style="fill-opacity:0.124;" transform="translate(168, 119)" ><rect x="14" y="0" width="14" height="42" /><rect x="0" y="14" width="42" height="14" /></g><g fill="#222" stroke="#000" stroke-opacity="0.02" style="fill-opacity:0.13266666666667;" transform="translate(28, 119)" ><rect x="14" y="0" width="14" height="42" /><rect x="0" y="14" width="42" height="14" /></g><g fill="#222" stroke="#000" stroke-opacity="0.02" style="fill-opacity:0.15;" transform="translate(56, 119)" ><rect x="14" y="0" width="14" height="42" /><rect x="0" y="14" width="42" height="14" /></g><g fill="#222" stroke="#000" stroke-opacity="0.02" style="fill-opacity:0.046;" transform="translate(84, 119)" ><rect x="14" y="0" width="14" height="42" /><rect x="0" y="14" width="42" height="14" /></g><g fill="#ddd" stroke="#000" stroke-opacity="0.02" style="fill-opacity:0.089333333333333;" transform="translate(112, 119)" ><rect x="14" y="0" width="14" height="42" /><rect x="0" y="14" width="42" height="14" /></g><g fill="#222" stroke="#000" stroke-opacity="0.02" style="fill-opacity:0.15;" transform="translate(140, 119)" ><rect x="14" y="0" width="14" height="42" /><rect x="0" y="14" width="42" height="14" /></g></svg>